<svg aria-hidden="true" style="position: absolute; width: 0; height: 0; overflow: hidden;" version="1.1" xmlns="http://www.w3.org/2000/svg" xmlns:xlink="http://www.w3.org/1999/xlink">
<defs>
<symbol id="icon-check-arrow" viewBox="0 0 40 32">
<path stroke-linejoin="miter" stroke-linecap="butt" stroke-miterlimit="4" stroke-width="8.0404" d="M2.23 18.717l12 8 22-24"></path>
</symbol>
<symbol id="icon-plus" viewBox="0 0 32 32">
<path stroke-linejoin="round" stroke-linecap="round" stroke-miterlimit="4" stroke-width="2.6667" d="M16 6.667v18.667"></path>
<path stroke-linejoin="round" stroke-linecap="round" stroke-miterlimit="4" stroke-width="2.6667" d="M6.667 16h18.667"></path>
</symbol>
<symbol id="icon-instagram" viewBox="0 0 32 32">
<path d="M28.718 10.756c-0.016-1.074-0.215-2.14-0.596-3.145-0.667-1.716-2.024-3.073-3.743-3.737-0.994-0.373-2.044-0.573-3.108-0.596-1.368-0.061-1.801-0.078-5.273-0.078s-3.916 0-5.274 0.078c-1.062 0.023-2.112 0.223-3.106 0.596-1.719 0.664-3.078 2.021-3.743 3.737-0.374 0.992-0.576 2.041-0.596 3.101-0.061 1.367-0.080 1.8-0.080 5.265s0 3.909 0.080 5.265c0.021 1.062 0.222 2.109 0.596 3.104 0.667 1.715 2.024 3.071 3.744 3.736 0.989 0.386 2.040 0.604 3.106 0.639 1.369 0.061 1.803 0.080 5.274 0.080s3.916 0 5.274-0.080c1.062-0.021 2.112-0.221 3.108-0.595 1.719-0.666 3.076-2.022 3.743-3.737 0.374-0.994 0.574-2.041 0.596-3.104 0.061-1.365 0.080-1.798 0.080-5.265-0.003-3.466-0.003-3.906-0.082-5.264zM15.99 22.531c-3.631 0-6.572-2.936-6.572-6.561s2.941-6.561 6.572-6.561c3.628 0 6.572 2.936 6.572 6.561s-2.944 6.561-6.572 6.561zM22.824 10.696c-0.849 0-1.532-0.684-1.532-1.53s0.684-1.53 1.532-1.53c0.846 0 1.531 0.684 1.531 1.53s-0.685 1.53-1.531 1.53z"></path>
<path d="M15.992 19.976c2.211 0 4.004-1.793 4.004-4.004s-1.793-4.004-4.004-4.004c-2.211 0-4.004 1.793-4.004 4.004s1.793 4.004 4.004 4.004z"></path>
</symbol>
<symbol id="icon-untitled" viewBox="0 0 32 32">
<path d="M0 29.017v-8.71c0-3.254 0.573-6.253 1.719-8.997s3.089-5.519 5.827-8.327l4.967 3.924c-1.592 1.595-2.802 3.095-3.63 4.498s-1.369 2.84-1.624 4.307h6.113v13.304h-13.373zM18.627 29.017v-8.71c0-3.254 0.573-6.253 1.719-8.997s3.089-5.519 5.827-8.327l4.967 3.924c-1.592 1.595-2.802 3.095-3.63 4.498s-1.369 2.84-1.624 4.307h6.113v13.304h-13.373z"></path>
</symbol>
<symbol id="icon-burger" viewBox="0 0 32 32">
<path stroke-linejoin="round" stroke-linecap="round" stroke-miterlimit="4" stroke-width="2.2857" d="M28 13.333h-24"></path>
<path stroke-linejoin="round" stroke-linecap="round" stroke-miterlimit="4" stroke-width="2.2857" d="M28 8h-24"></path>
<path stroke-linejoin="round" stroke-linecap="round" stroke-miterlimit="4" stroke-width="2.2857" d="M28 18.667h-24"></path>
<path stroke-linejoin="round" stroke-linecap="round" stroke-miterlimit="4" stroke-width="2.2857" d="M28 24h-24"></path>
</symbol>
<symbol id="icon-arrow-up-right" viewBox="0 0 32 32">
<path stroke-linejoin="round" stroke-linecap="round" stroke-miterlimit="4" stroke-width="2.6667" d="M9.333 22.667l13.333-13.333"></path>
<path stroke-linejoin="round" stroke-linecap="round" stroke-miterlimit="4" stroke-width="2.6667" d="M9.333 9.333h13.333v13.333"></path>
</symbol>
<symbol id="icon-Ellipse-black" viewBox="0 0 32 32">
<path d="M32 16c0 8.837-7.163 16-16 16s-16-7.163-16-16c0-8.837 7.163-16 16-16s16 7.163 16 16z"></path>
</symbol>
<symbol id="icon-Ellipse-grey" viewBox="0 0 32 32">
<path fill="#e8e8e8" style="fill: var(--color1, #e8e8e8)" d="M32 16c0 8.837-7.163 16-16 16s-16-7.163-16-16c0-8.837 7.163-16 16-16s16 7.163 16 16z"></path>
</symbol>
<symbol id="icon-logo" viewBox="0 0 32 32">
<path d="M0.925 19.47v-3.646h-0.888v-1.046h1.286l-0.398 0.361v-0.675c0-0.611 0.157-1.070 0.472-1.379 0.321-0.308 0.799-0.463 1.434-0.463 0.142 0 0.293 0.009 0.453 0.028 0.167 0.018 0.312 0.056 0.435 0.111v1.073c-0.086-0.031-0.185-0.052-0.296-0.065-0.111-0.018-0.219-0.028-0.324-0.028-0.142 0-0.275 0.025-0.398 0.074-0.117 0.049-0.213 0.133-0.287 0.25-0.068 0.111-0.102 0.262-0.102 0.453v0.49l-0.194-0.231h1.379v1.046h-1.175v3.646h-1.397zM6.070 19.572c-0.5 0-0.935-0.099-1.305-0.296-0.364-0.204-0.648-0.487-0.851-0.851-0.197-0.364-0.296-0.799-0.296-1.305 0-0.5 0.099-0.931 0.296-1.295 0.204-0.364 0.487-0.645 0.851-0.842 0.37-0.197 0.805-0.296 1.305-0.296s0.935 0.099 1.305 0.296c0.37 0.197 0.654 0.478 0.851 0.842 0.204 0.364 0.305 0.796 0.305 1.295 0 0.506-0.102 0.941-0.305 1.305-0.197 0.364-0.481 0.648-0.851 0.851-0.37 0.197-0.805 0.296-1.305 0.296zM6.070 18.517c0.321 0 0.574-0.114 0.759-0.342 0.191-0.228 0.287-0.58 0.287-1.055s-0.096-0.824-0.287-1.046c-0.185-0.222-0.438-0.333-0.759-0.333s-0.577 0.111-0.768 0.333c-0.185 0.222-0.278 0.571-0.278 1.046s0.093 0.827 0.278 1.055c0.191 0.228 0.447 0.342 0.768 0.342zM11.469 19.572c-0.5 0-0.935-0.099-1.305-0.296-0.364-0.204-0.648-0.487-0.851-0.851-0.197-0.364-0.296-0.799-0.296-1.305 0-0.5 0.099-0.931 0.296-1.295 0.204-0.364 0.487-0.645 0.851-0.842 0.37-0.197 0.805-0.296 1.305-0.296s0.935 0.099 1.305 0.296c0.37 0.197 0.654 0.478 0.851 0.842 0.204 0.364 0.305 0.796 0.305 1.295 0 0.506-0.102 0.941-0.305 1.305-0.197 0.364-0.481 0.648-0.851 0.851-0.37 0.197-0.805 0.296-1.305 0.296zM11.469 18.517c0.321 0 0.574-0.114 0.759-0.342 0.191-0.228 0.287-0.58 0.287-1.055s-0.096-0.824-0.287-1.046c-0.185-0.222-0.438-0.333-0.759-0.333s-0.577 0.111-0.768 0.333c-0.185 0.222-0.278 0.571-0.278 1.046s0.093 0.827 0.278 1.055c0.191 0.228 0.447 0.342 0.768 0.342zM16.489 19.572c-0.407 0-0.768-0.099-1.083-0.296-0.308-0.197-0.552-0.478-0.731-0.842-0.173-0.364-0.259-0.802-0.259-1.314 0-0.506 0.086-0.941 0.259-1.305s0.416-0.642 0.731-0.833c0.315-0.197 0.675-0.296 1.083-0.296 0.37 0 0.7 0.089 0.99 0.268 0.296 0.173 0.494 0.407 0.592 0.703h-0.12v-2.998h1.397v6.81h-1.379v-0.916h0.12c-0.099 0.308-0.296 0.555-0.592 0.74s-0.632 0.278-1.009 0.278zM16.906 18.517c0.321 0 0.58-0.114 0.777-0.342s0.296-0.58 0.296-1.055c0-0.475-0.099-0.824-0.296-1.046s-0.456-0.333-0.777-0.333c-0.321 0-0.583 0.111-0.787 0.333-0.197 0.222-0.296 0.571-0.296 1.046s0.099 0.827 0.296 1.055c0.204 0.228 0.466 0.342 0.787 0.342zM20.309 19.47v-4.691h1.397v4.691h-1.397zM20.254 14.011v-1.305h1.499v1.305h-1.499zM25.023 19.572c-0.814 0-1.45-0.219-1.906-0.657s-0.685-1.033-0.685-1.786c0-0.487 0.096-0.913 0.287-1.277 0.197-0.364 0.469-0.648 0.814-0.851 0.352-0.21 0.762-0.315 1.231-0.315 0.463 0 0.848 0.099 1.157 0.296 0.315 0.197 0.549 0.475 0.703 0.833 0.16 0.352 0.241 0.762 0.241 1.231v0.324h-3.285v-0.694h2.267l-0.157 0.13c0-0.389-0.080-0.682-0.241-0.879-0.154-0.204-0.379-0.305-0.675-0.305-0.327 0-0.58 0.12-0.759 0.361-0.173 0.241-0.259 0.586-0.259 1.036v0.148c0 0.456 0.111 0.796 0.333 1.018 0.228 0.222 0.555 0.333 0.981 0.333 0.253 0 0.49-0.031 0.712-0.093 0.228-0.068 0.444-0.173 0.648-0.315l0.389 0.925c-0.234 0.173-0.506 0.305-0.814 0.398-0.302 0.093-0.629 0.139-0.981 0.139zM29.296 19.572c-0.419 0-0.802-0.046-1.147-0.139s-0.638-0.222-0.879-0.389l0.361-0.925c0.241 0.148 0.506 0.265 0.796 0.352 0.296 0.086 0.589 0.13 0.879 0.13 0.271 0 0.472-0.043 0.601-0.13s0.194-0.204 0.194-0.352c0-0.123-0.043-0.219-0.13-0.287-0.080-0.068-0.207-0.117-0.379-0.148l-0.953-0.176c-0.401-0.080-0.706-0.228-0.916-0.444s-0.315-0.497-0.315-0.842c0-0.302 0.080-0.568 0.241-0.796 0.167-0.234 0.404-0.416 0.712-0.546s0.669-0.194 1.083-0.194c0.352 0 0.685 0.043 0.999 0.13s0.583 0.219 0.805 0.398l-0.379 0.898c-0.191-0.142-0.413-0.256-0.666-0.342-0.247-0.086-0.484-0.13-0.712-0.13-0.296 0-0.509 0.049-0.638 0.148-0.13 0.093-0.194 0.213-0.194 0.361 0 0.111 0.037 0.204 0.111 0.278 0.080 0.074 0.2 0.13 0.361 0.167l0.962 0.176c0.413 0.074 0.728 0.213 0.944 0.416s0.324 0.484 0.324 0.842c0 0.327-0.086 0.605-0.259 0.833s-0.416 0.404-0.731 0.527c-0.308 0.123-0.666 0.185-1.073 0.185z"></path>
</symbol>
<symbol id="icon-Property-1Active" viewBox="0 0 32 32">
<path d="M10.667 0h10.667c5.891 0 10.667 4.776 10.667 10.667v10.667c0 5.891-4.776 10.667-10.667 10.667h-10.667c-5.891 0-10.667-4.776-10.667-10.667v-10.667c0-5.891 4.776-10.667 10.667-10.667z"></path>
<path stroke-linejoin="miter" stroke-linecap="butt" stroke-miterlimit="4" stroke-width="3.5735" d="M8.889 17.778l5.333 3.556 9.778-10.667"></path>
</symbol>
<symbol id="icon-Property-1Default" viewBox="0 0 32 32">
<path stroke-linejoin="miter" stroke-linecap="butt" stroke-miterlimit="4" stroke-width="1.6842" d="M10.947 0.842h10.105c5.581 0 10.105 4.524 10.105 10.105v10.105c0 5.581-4.524 10.105-10.105 10.105h-10.105c-5.581 0-10.105-4.524-10.105-10.105v-10.105c0-5.581 4.524-10.105 10.105-10.105z"></path>
</symbol>
<symbol id="icon-eye" viewBox="0 0 32 32">
<path stroke-linejoin="round" stroke-linecap="round" stroke-miterlimit="4" stroke-width="2.88" d="M1.333 16c0 0 5.333-10.667 14.667-10.667s14.667 10.667 14.667 10.667-5.333 10.667-14.667 10.667c-9.333 0-14.667-10.667-14.667-10.667z"></path>
<path stroke-linejoin="round" stroke-linecap="round" stroke-miterlimit="4" stroke-width="2.88" d="M16 20c2.209 0 4-1.791 4-4s-1.791-4-4-4c-2.209 0-4 1.791-4 4s1.791 4 4 4z"></path>
</symbol>
<symbol id="icon-eye-off" viewBox="0 0 32 32">
<path stroke-linejoin="round" stroke-linecap="round" stroke-miterlimit="4" stroke-width="2.88" d="M23.92 23.92c-2.279 1.737-5.055 2.7-7.92 2.747-9.333 0-14.667-10.667-14.667-10.667 1.659-3.091 3.959-5.791 6.747-7.92M13.2 5.654c0.918-0.215 1.857-0.322 2.8-0.32 9.333 0 14.667 10.667 14.667 10.667-0.809 1.514-1.775 2.94-2.88 4.253M18.826 18.827c-0.366 0.393-0.808 0.708-1.298 0.927s-1.020 0.336-1.557 0.346c-0.537 0.009-1.071-0.089-1.569-0.291s-0.951-0.501-1.33-0.88c-0.38-0.38-0.679-0.832-0.88-1.33s-0.3-1.032-0.29-1.569c0.009-0.537 0.127-1.067 0.346-1.557s0.534-0.932 0.927-1.298"></path>
<path stroke-linejoin="round" stroke-linecap="round" stroke-miterlimit="4" stroke-width="2.88" d="M1.333 1.334l29.333 29.333"></path>
</symbol>
<symbol id="icon-trash" viewBox="0 0 32 32">
<path stroke-linejoin="round" stroke-linecap="round" stroke-miterlimit="4" stroke-width="2.6667" d="M12 4h8"></path>
<path stroke-linejoin="round" stroke-linecap="round" stroke-miterlimit="4" stroke-width="2.6667" d="M4 8h24M25.333 8l-0.935 14.026c-0.14 2.104-0.21 3.156-0.665 3.954-0.4 0.702-1.004 1.267-1.731 1.62-0.826 0.4-1.881 0.4-3.99 0.4h-4.025c-2.109 0-3.163 0-3.99-0.4-0.727-0.353-1.331-0.917-1.731-1.62-0.455-0.798-0.525-1.85-0.665-3.954l-0.935-14.026"></path>
</symbol>
<symbol id="icon-arrow-up" viewBox="0 0 32 32">
<path stroke-linejoin="round" stroke-linecap="round" stroke-miterlimit="4" stroke-width="5.2364" d="M2.619 21.527l13.091-13.091 13.091 13.091"></path>
</symbol>
<symbol id="icon-heart" viewBox="0 0 32 32">
<path stroke-linejoin="round" stroke-linecap="round" stroke-miterlimit="4" stroke-width="2.6667" d="M27.055 5.26c-0.681-0.681-1.49-1.222-2.38-1.591s-1.844-0.559-2.807-0.559c-0.963 0-1.917 0.19-2.807 0.559s-1.699 0.909-2.38 1.591l-1.413 1.413-1.413-1.413c-1.376-1.376-3.241-2.148-5.187-2.148s-3.811 0.773-5.187 2.148c-1.376 1.376-2.148 3.241-2.148 5.187s0.773 3.811 2.148 5.187l11.787 11.787 11.787-11.787c0.681-0.681 1.222-1.49 1.591-2.38s0.558-1.844 0.558-2.807-0.19-1.917-0.558-2.807c-0.369-0.89-0.909-1.699-1.591-2.38z"></path>
</symbol>
<symbol id="icon-arrow-down" viewBox="0 0 32 32">
<path stroke-linejoin="round" stroke-linecap="round" stroke-miterlimit="4" stroke-width="4.3636" d="M2.182 9.455l13.091 13.091 13.091-13.091"></path>
</symbol>
<symbol id="icon-facebook" viewBox="0 0 32 32">
<path d="M20.16 0.107c0.32 0 0.64 0 1.28 0v4.8c-0.32 0-0.96 0-1.6 0s-1.28 0-1.6 0.32c-0.32 0.32-0.32 0.64-0.32 1.387 0 0.64 0 1.067 0 1.707h3.52v4.053h-3.52v17.6h-5.44v-17.707h-2.88v-4.053h2.88v-1.387c0-2.347 0.32-4.053 0.96-4.8 0.96-1.387 2.88-2.027 5.76-2.027 0.32 0.107 0.64 0.107 0.96 0.107z"></path>
</symbol>
<symbol id="icon-youtube" viewBox="0 0 32 32">
<path d="M31.68 9.507c0 0-0.32-2.311-1.28-3.302-1.173-1.321-2.56-1.321-3.2-1.431-4.48-0.33-11.2-0.33-11.2-0.33s-6.72 0-11.2 0.33c-0.64 0.11-2.027 0.11-3.2 1.431-0.96 0.99-1.28 3.302-1.28 3.302s-0.32 2.641-0.32 5.283v2.421c0 2.641 0.32 5.393 0.32 5.393s0.32 2.311 1.28 3.302c1.173 1.321 2.773 1.321 3.52 1.431 2.56 0.11 10.88 0.22 10.88 0.22s6.72 0 11.2-0.33c0.64-0.11 2.027-0.11 3.2-1.431 0.96-0.99 1.28-3.302 1.28-3.302s0.32-2.641 0.32-5.283v-2.421c0-2.641-0.32-5.283-0.32-5.283zM12.693 20.292v-9.244l8.64 4.622-8.64 4.622z"></path>
</symbol>
</defs>
</svg>
